<svg width="14" height="14" viewBox="0 0 14 14" fill="none" xmlns="http://www.w3.org/2000/svg">
<path d="M11.7594 0H0V11.7594C0 12.3531 0.2375 12.9219 0.65625 13.3438C1.075 13.7656 1.64687 14 2.24062 14H11.7594C12.3531 14 12.9219 13.7625 13.3438 13.3438C13.7656 12.925 14 12.3531 14 11.7594V2.24062C14 1.64687 13.7625 1.07812 13.3438 0.65625C12.925 0.234375 12.3531 0 11.7594 0ZM10.3875 12.4812C10.1469 12.2156 10.0219 11.8344 10.0125 11.3375H10.9906C10.9969 11.7781 11.15 11.9969 11.4531 11.9969C11.6062 11.9969 11.7156 11.9469 11.7812 11.85C11.8438 11.7531 11.875 11.6 11.875 11.3875C11.875 11.2188 11.8344 11.0781 11.75 10.9688C11.6406 10.8375 11.4969 10.7344 11.3375 10.6719L10.975 10.5C10.6531 10.3469 10.4188 10.1625 10.2719 9.95C10.1313 9.7375 10.0625 9.44063 10.0625 9.0625C10.0625 8.6375 10.1875 8.29375 10.4312 8.02812C10.6844 7.7625 11.0281 7.63125 11.4688 7.63125C11.8938 7.63125 12.2219 7.7625 12.4531 8.02188C12.6875 8.28438 12.8125 8.65625 12.8219 9.14375H11.8813C11.8875 8.98438 11.8531 8.825 11.7875 8.68125C11.7344 8.575 11.6313 8.52188 11.475 8.52188C11.2 8.52188 11.0625 8.68437 11.0625 9.0125C11.0625 9.17812 11.0969 9.30625 11.1625 9.40625C11.2594 9.51562 11.3813 9.6 11.5188 9.65L11.8656 9.80313C12.225 9.96875 12.4812 10.1687 12.6406 10.4094C12.8 10.65 12.8781 10.9719 12.8781 11.3781C12.8781 11.8625 12.7531 12.2344 12.4937 12.4937C12.2375 12.7531 11.8844 12.8844 11.4281 12.8844C10.9719 12.8844 10.6281 12.7531 10.3844 12.4875L10.3875 12.4812ZM7.23125 12.4812C6.99062 12.2156 6.86562 11.8344 6.85625 11.3375H7.83437C7.84062 11.7781 7.99375 11.9969 8.29688 11.9969C8.45 11.9969 8.55937 11.9469 8.62187 11.85C8.68437 11.7531 8.71562 11.6 8.71562 11.3875C8.71562 11.2188 8.675 11.0781 8.59375 10.9688C8.48438 10.8375 8.34062 10.7344 8.18125 10.6719L7.81875 10.5C7.49687 10.3469 7.2625 10.1625 7.11562 9.95C6.975 9.7375 6.90625 9.44063 6.90625 9.0625C6.90625 8.6375 7.03125 8.29375 7.275 8.02812C7.52813 7.7625 7.87187 7.63125 8.3125 7.63125C8.7375 7.63125 9.06563 7.7625 9.29375 8.02188C9.53125 8.28438 9.65312 8.65625 9.66562 9.14375H8.725C8.73125 8.98438 8.69688 8.825 8.63125 8.68125C8.57812 8.575 8.475 8.52188 8.31875 8.52188C8.04375 8.52188 7.90625 8.68437 7.90625 9.0125C7.90625 9.17812 7.94063 9.30625 8.00625 9.40625C8.10313 9.51562 8.225 9.6 8.3625 9.65L8.70938 9.80313C9.06875 9.96875 9.325 10.1687 9.48438 10.4094C9.64375 10.65 9.72188 10.9719 9.72188 11.3781C9.72188 11.8625 9.59375 12.2344 9.3375 12.4937C8.95312 12.8828 8.72813 12.8844 8.27188 12.8844C7.81563 12.8844 7.47188 12.7531 7.22813 12.4875L7.23125 12.4812ZM3.93125 12.5156C3.66875 12.275 3.54063 11.9156 3.54063 11.4375V9.08125C3.54063 8.60625 3.67812 8.24687 3.95312 8C4.23125 7.75625 4.6 7.63125 5.05312 7.63125C5.49375 7.63125 5.84063 7.75625 6.09688 8.00625C6.35625 8.25625 6.4875 8.63125 6.4875 9.12813V9.31563H5.45312V9.13437C5.45312 8.94375 5.4125 8.8 5.32812 8.70938C5.29375 8.6625 5.24687 8.625 5.19375 8.6C5.14062 8.575 5.08437 8.5625 5.025 8.56563C4.85625 8.56563 4.7375 8.62188 4.66875 8.74063C4.59687 8.90313 4.56562 9.07812 4.575 9.25313V11.3C4.575 11.7281 4.725 11.9437 5.025 11.95C5.16563 11.95 5.27187 11.9 5.34375 11.8C5.42188 11.6719 5.45937 11.525 5.45312 11.375V11.2219H6.4875V11.3813C6.4875 11.7125 6.42188 11.9906 6.29375 12.2125C6.16875 12.4281 5.98438 12.6031 5.75938 12.7125C5.51875 12.8281 5.25625 12.8844 4.99062 12.8781C4.54688 12.8781 4.19375 12.7563 3.93438 12.5156H3.93125Z" fill="black"/>
</svg>
