<svg width="24" height="20" viewBox="0 0 24 20" fill="none" xmlns="http://www.w3.org/2000/svg">
<path d="M19.705 0.148438V19.8544H0V0.148438H19.705ZM0.141 19.7134H19.564V0.289438H0.141V19.7134ZM2.702 9.26944C3.13 9.26944 3.462 9.3821 3.698 9.60744C3.934 9.83277 4.065 10.0888 4.091 10.3754H3.645C3.60381 10.1744 3.49728 9.99262 3.342 9.85844C3.192 9.7311 2.98033 9.66744 2.707 9.66744C2.37367 9.66744 2.10433 9.78477 1.899 10.0194C1.695 10.2521 1.593 10.6101 1.593 11.0934C1.593 11.4894 1.685 11.8108 1.869 12.0574C2.055 12.3028 2.331 12.4254 2.697 12.4254C3.035 12.4254 3.292 12.2958 3.468 12.0364C3.56133 11.9004 3.63133 11.7211 3.678 11.4984H4.124C4.084 11.8544 3.952 12.1528 3.728 12.3934C3.46 12.6828 3.098 12.8274 2.642 12.8274C2.25 12.8274 1.92033 12.7088 1.653 12.4714C1.30233 12.1568 1.12667 11.6714 1.126 11.0154C1.126 10.5168 1.258 10.1081 1.522 9.78944C1.80733 9.44277 2.20067 9.26944 2.702 9.26944ZM4.982 11.6494C4.98331 11.8145 5.03002 11.9761 5.117 12.1164C5.269 12.3404 5.53667 12.4524 5.92 12.4524C6.09133 12.4524 6.248 12.4281 6.39 12.3794C6.66267 12.2841 6.799 12.1138 6.799 11.8684C6.799 11.6844 6.74133 11.5534 6.626 11.4754C6.50933 11.3981 6.327 11.3314 6.079 11.2754L5.621 11.1714C5.32233 11.1041 5.11067 11.0298 4.986 10.9484C4.77133 10.8078 4.664 10.5968 4.664 10.3154C4.664 10.0121 4.769 9.7631 4.979 9.56844C5.189 9.37377 5.48667 9.27644 5.872 9.27644C6.226 9.27644 6.52667 9.3621 6.774 9.53344C7.022 9.70344 7.146 9.97677 7.146 10.3534H6.716C6.70464 10.2039 6.65393 10.06 6.569 9.93644C6.429 9.75977 6.19233 9.67144 5.859 9.67144C5.58833 9.67144 5.394 9.7281 5.276 9.84144C5.22024 9.89123 5.17564 9.95225 5.14513 10.0205C5.11463 10.0888 5.09891 10.1627 5.099 10.2374C5.099 10.4034 5.168 10.5248 5.306 10.6014C5.396 10.6501 5.60067 10.7114 5.92 10.7854L6.394 10.8934C6.62267 10.9454 6.79933 11.0168 6.924 11.1074C7.138 11.2654 7.245 11.4944 7.245 11.7944C7.245 12.1691 7.10833 12.4368 6.835 12.5974C6.5477 12.7639 6.21995 12.8477 5.888 12.8394C5.468 12.8394 5.139 12.7321 4.901 12.5174C4.66367 12.3041 4.547 12.0151 4.551 11.6504H4.981L4.982 11.6494ZM8.119 11.6494C8.12061 11.8146 8.16766 11.9762 8.255 12.1164C8.407 12.3404 8.67467 12.4524 9.058 12.4524C9.22933 12.4524 9.38567 12.4281 9.527 12.3794C9.80033 12.2841 9.937 12.1138 9.937 11.8684C9.937 11.6844 9.87933 11.5534 9.764 11.4754C9.64667 11.3981 9.464 11.3314 9.216 11.2754L8.759 11.1714C8.459 11.1041 8.24733 11.0298 8.124 10.9484C7.90933 10.8078 7.802 10.5968 7.802 10.3154C7.802 10.0121 7.907 9.7631 8.117 9.56844C8.32767 9.37377 8.625 9.27644 9.009 9.27644C9.36367 9.27644 9.66433 9.3621 9.911 9.53344C10.1597 9.70344 10.284 9.97677 10.284 10.3534H9.854C9.84235 10.2038 9.79128 10.0599 9.706 9.93644C9.566 9.75977 9.32933 9.67144 8.996 9.67144C8.726 9.67144 8.532 9.7281 8.414 9.84144C8.35824 9.89123 8.31364 9.95225 8.28313 10.0205C8.25263 10.0888 8.23691 10.1627 8.237 10.2374C8.237 10.4034 8.306 10.5248 8.444 10.6014C8.534 10.6501 8.73867 10.7114 9.058 10.7854L9.532 10.8934C9.76 10.9454 9.93633 11.0168 10.061 11.1074C10.2757 11.2654 10.383 11.4944 10.383 11.7944C10.383 12.1691 10.2463 12.4368 9.973 12.5974C9.6857 12.7639 9.35795 12.8477 9.026 12.8394C8.606 12.8394 8.277 12.7321 8.039 12.5174C7.801 12.3041 7.68433 12.0151 7.689 11.6504H8.119V11.6494ZM1.922 15.2494L2.892 18.1064L3.857 15.2494H4.505V18.6294H4.071V16.6344C4.071 16.5651 4.07233 16.4508 4.075 16.2914C4.07833 16.1314 4.08 15.9604 4.08 15.7784L3.116 18.6284H2.663L1.693 15.7784V15.8824C1.69233 15.9658 1.69367 16.0924 1.697 16.2624C1.701 16.4304 1.70333 16.5544 1.704 16.6344V18.6284H1.267V15.2494H1.922ZM6.665 15.1584C7.26167 15.1584 7.70333 15.3501 7.99 15.7334C8.214 16.0321 8.326 16.4144 8.326 16.8804C8.326 17.3851 8.198 17.8048 7.942 18.1394C7.64133 18.5314 7.21267 18.7278 6.656 18.7284C6.136 18.7284 5.72733 18.5564 5.43 18.2124C5.16467 17.8818 5.032 17.4631 5.032 16.9564C5.032 16.4998 5.14533 16.1088 5.372 15.7834C5.664 15.3668 6.095 15.1584 6.665 15.1584ZM6.711 18.3184C7.11433 18.3184 7.40567 18.1744 7.585 17.8864C7.76633 17.5964 7.857 17.2634 7.857 16.8874C7.857 16.4901 7.75267 16.1704 7.544 15.9284C7.33733 15.6864 7.05367 15.5654 6.693 15.5654C6.343 15.5654 6.05767 15.6854 5.837 15.9254C5.61633 16.1654 5.506 16.5191 5.506 16.9864C5.506 17.3611 5.60033 17.6771 5.789 17.9344C5.979 18.1904 6.28633 18.3184 6.711 18.3184ZM10.166 18.2384C10.3213 18.2384 10.4487 18.2221 10.548 18.1894C10.7287 18.1275 10.8828 18.0058 10.985 17.8444C11.0849 17.6847 11.1516 17.5065 11.181 17.3204C11.2029 17.2034 11.2143 17.0845 11.215 16.9654C11.215 16.5474 11.1317 16.2224 10.965 15.9904C10.7983 15.7591 10.5307 15.6434 10.162 15.6434H9.35V18.2384H10.166ZM8.89 15.2484H10.258C10.7227 15.2484 11.083 15.4134 11.339 15.7434C11.5677 16.0408 11.682 16.4218 11.682 16.8864C11.682 17.2458 11.6147 17.5701 11.48 17.8594C11.242 18.3714 10.8333 18.6278 10.254 18.6284H8.89V15.2484ZM12.77 15.2484V17.3374C12.77 17.5828 12.816 17.7868 12.908 17.9494C13.0447 18.1948 13.2747 18.3174 13.598 18.3174C13.986 18.3174 14.2497 18.1848 14.389 17.9194C14.465 17.7754 14.5027 17.5814 14.502 17.3374V15.2484H14.967V17.1464C14.967 17.5611 14.911 17.8811 14.799 18.1064C14.593 18.5131 14.205 18.7164 13.635 18.7164C12.78 18.7164 12.677 18.5134 12.473 18.1064C12.361 17.8811 12.305 17.5611 12.305 17.1464V15.2484H12.77ZM16.127 15.2484V18.2254H17.838V18.6274H15.668V15.2484H16.127ZM18.335 15.2484H20.798V15.6624H18.781V16.6884H20.646V17.0794H18.781V18.2254H20.833V18.6274H18.335V15.2484ZM21.737 17.5384C21.7477 17.7291 21.7927 17.8844 21.872 18.0044C22.024 18.2284 22.2917 18.3404 22.675 18.3404C22.847 18.3404 23.0037 18.3158 23.145 18.2664C23.417 18.1711 23.5533 18.0011 23.554 17.7564C23.554 17.5724 23.4963 17.4411 23.381 17.3624C23.265 17.2864 23.0827 17.2198 22.834 17.1624L22.376 17.0594C22.0773 16.9914 21.8657 16.9171 21.741 16.8364C21.5263 16.6958 21.419 16.4848 21.419 16.2034C21.419 15.8994 21.524 15.6501 21.734 15.4554C21.944 15.2614 22.2417 15.1641 22.627 15.1634C22.981 15.1634 23.2813 15.2494 23.528 15.4214C23.7767 15.5914 23.901 15.8644 23.901 16.2404H23.471C23.4595 16.0913 23.4088 15.9477 23.324 15.8244C23.184 15.6478 22.947 15.5594 22.613 15.5594C22.343 15.5594 22.149 15.6161 22.031 15.7294C21.9752 15.7792 21.9306 15.8403 21.9001 15.9085C21.8696 15.9768 21.8539 16.0507 21.854 16.1254C21.854 16.2908 21.923 16.4118 22.061 16.4884C22.151 16.5378 22.3557 16.5991 22.675 16.6724L23.149 16.7804C23.3777 16.8338 23.554 16.9051 23.678 16.9944C23.8927 17.1531 24 17.3824 24 17.6824C24 18.0564 23.8633 18.3241 23.59 18.4854C23.3026 18.6516 22.9748 18.735 22.643 18.7264C22.223 18.7264 21.894 18.6191 21.656 18.4044C21.4187 18.1911 21.302 17.9021 21.306 17.5374H21.736L21.737 17.5384Z" fill="black"/>
</svg>
