<svg width="24" height="24" viewBox="0 0 24 24" fill="none" xmlns="http://www.w3.org/2000/svg">
<mask id="mask0_290_470" style="mask-type:luminance" maskUnits="userSpaceOnUse" x="0" y="0" width="24" height="24">
<path d="M0 0H24V24H0V0Z" fill="white"/>
</mask>
<g mask="url(#mask0_290_470)">
<path d="M5.08 0H6.162V1.069H7.152V0H8.234V3.236H7.152V2.153H6.162V3.236H5.081L5.08 0ZM9.656 1.073H8.704V0H11.691V1.073H10.738V3.236H9.656V1.073ZM12.165 0H13.293L13.987 1.137L14.68 0H15.808V3.236H14.731V1.632L13.987 2.783H13.968L13.223 1.633V3.236H12.165V0ZM16.346 0H17.429V2.167H18.949V3.237H16.346V0Z" fill="black"/>
<path fill-rule="evenodd" clip-rule="evenodd" d="M5.046 22.0737L3 4.71875H21L18.953 22.0718L11.99 24.0018L5.046 22.0737ZM9.183 12.5737L8.989 10.3938H17.134L17.324 8.26575H6.664L7.238 14.7028H14.615L14.368 17.4628L11.994 18.1048H11.992L9.622 17.4647L9.47 15.7677H7.332L7.63 19.1097L11.99 20.3198L16.357 19.1097L16.889 13.1458L16.941 12.5747L9.183 12.5737Z" fill="black"/>
</g>
</svg>
