<svg width="18" height="18" viewBox="0 0 18 18" fill="none" xmlns="http://www.w3.org/2000/svg">
<path d="M3 0C2.20435 0 1.44129 0.316071 0.87868 0.87868C0.316071 1.44129 0 2.20435 0 3V15C0 15.7956 0.316071 16.5587 0.87868 17.1213C1.44129 17.6839 2.20435 18 3 18H15C15.7956 18 16.5587 17.6839 17.1213 17.1213C17.6839 16.5587 18 15.7956 18 15V3C18 2.20435 17.6839 1.44129 17.1213 0.87868C16.5587 0.316071 15.7956 0 15 0H3ZM10.334 13.055C11.054 13.635 11.7727 13.921 12.49 13.913C12.93 13.913 13.2673 13.8323 13.502 13.671C13.6113 13.6001 13.7002 13.5019 13.76 13.3862C13.8197 13.2705 13.8484 13.1412 13.843 13.011C13.8445 12.869 13.8149 12.7285 13.7561 12.5992C13.6974 12.47 13.611 12.3552 13.503 12.263C13.2683 12.0583 12.8243 11.853 12.171 11.647C11.3863 11.4203 10.7813 11.127 10.356 10.767C9.93867 10.407 9.726 9.90467 9.718 9.26C9.718 8.65133 9.982 8.14167 10.51 7.731C11.0233 7.32033 11.68 7.115 12.48 7.115C13.5947 7.115 14.489 7.38633 15.163 7.929L14.393 9.128C14.1157 8.91243 13.7977 8.75527 13.458 8.666C13.1528 8.56373 12.8338 8.5081 12.512 8.501C12.132 8.501 11.8277 8.57067 11.599 8.71C11.3723 8.85 11.259 9.03333 11.259 9.26C11.259 9.50933 11.398 9.722 11.676 9.898C11.956 10.0673 12.4327 10.2543 13.106 10.459C13.92 10.701 14.4993 11.0237 14.844 11.427C15.1887 11.8303 15.361 12.3437 15.361 12.967C15.361 13.605 15.1153 14.155 14.624 14.617C14.14 15.0717 13.436 15.31 12.512 15.332C11.302 15.332 10.29 14.969 9.476 14.243L10.334 13.055ZM4.804 13.693C5.03867 13.8397 5.321 13.913 5.651 13.913C5.99567 13.913 6.28167 13.814 6.509 13.616C6.73567 13.4107 6.84933 13.055 6.85 12.549V7.247H8.335V12.835C8.313 13.7003 8.06367 14.3237 7.587 14.705C7.32618 14.9255 7.02294 15.0902 6.696 15.189C6.39282 15.2813 6.07792 15.3295 5.761 15.332C5.211 15.332 4.72333 15.2367 4.298 15.046C3.84333 14.8413 3.462 14.4783 3.154 13.957L4.188 13.11C4.378 13.3667 4.58333 13.561 4.804 13.693Z" fill="black"/>
</svg>
