<svg width="17" height="23" viewBox="0 0 17 23" fill="none" xmlns="http://www.w3.org/2000/svg">
<path d="M12.638 4.56601L12.694 4.59801C11.936 4.99801 9.77002 6.28801 9.77002 7.93001C9.77002 8.48401 10.087 9.01801 10.384 9.52001C10.646 9.96201 10.893 10.378 10.893 10.758C10.893 11.715 9.96002 12.458 9.43302 12.8L9.33302 12.742C9.53202 12.499 9.77702 12.092 9.77702 11.658C9.77702 11.06 9.47002 10.582 9.15902 10.097C8.83702 9.59601 8.51102 9.08701 8.51102 8.42701C8.51102 6.13501 11.626 4.90501 12.638 4.56601ZM8.54302 5.77801C9.79602 4.65801 11.165 3.43401 11.165 1.59301C11.165 0.760015 10.824 0.228015 10.655 0.0150146L10.6 0.0460146C10.64 0.212015 10.7 0.518015 10.7 0.918015C10.7 2.59401 9.27802 3.76801 7.90202 4.90601C6.61102 5.97401 5.36002 7.00801 5.36002 8.39201C5.36002 10.377 7.31802 11.598 8.14502 12.114L8.20802 12.154L8.25802 12.124C8.21335 12.0747 8.16602 12.024 8.11602 11.972C7.48002 11.295 6.51402 10.268 6.51402 8.69701C6.51402 7.59401 7.48702 6.72301 8.54302 5.77801ZM8.09202 15.686C9.85602 15.686 11.09 15.433 11.638 15.278L12.47 15.758C11.677 16.161 9.91902 16.468 8.08802 16.468C5.93502 16.468 3.58102 16.006 3.57402 15.39C3.56902 15.05 4.33902 14.824 5.16902 14.678L5.21902 14.707C5.21902 14.707 4.93802 14.808 4.94102 15.04C4.94502 15.39 6.36102 15.686 8.09102 15.686M4.56202 17.857C4.56202 17.45 5.40102 17.257 5.78502 17.18L5.83502 17.21C5.76902 17.259 5.73302 17.326 5.73302 17.383C5.73302 17.65 6.66302 17.894 8.08902 17.894C9.36702 17.894 10.077 17.737 10.499 17.636L11.489 18.209C11.444 18.241 10.469 18.854 8.08702 18.854C6.35602 18.854 4.56202 18.422 4.56202 17.857ZM13.091 16.129C14.271 15.456 15.452 14.66 15.519 13.382C15.563 12.543 14.792 11.928 13.949 12.092L13.994 11.98V11.978C14.206 11.914 14.468 11.862 14.761 11.862C15.704 11.862 16.427 12.427 16.519 13.218C16.705 14.804 14.457 15.836 13.198 16.191L13.091 16.129ZM15.066 19.117C15.076 20.207 11.368 20.855 8.05402 20.884C5.19302 20.909 0.580021 20.369 0.570021 19.279C0.564021 18.526 2.57002 18.005 3.66002 17.855L3.77502 17.92C3.77502 17.92 2.15002 18.297 2.15502 18.982C2.16102 19.665 5.58002 20.256 8.04902 20.235C11.874 20.201 14.463 19.578 14.769 18.733L14.823 18.702C14.935 18.784 15.063 18.919 15.066 19.117ZM3.43002 21.337C4.84496 21.5631 6.27617 21.6718 7.70902 21.662C13.917 21.608 15.669 20.082 15.939 19.75L15.986 19.778C15.922 20.986 12.639 21.99 8.59002 22.025C6.52902 22.043 4.65302 21.805 3.30502 21.41L3.43002 21.337ZM6.03202 12.054C4.95302 12.137 2.63602 12.48 2.63602 13.09C2.63602 13.552 4.76002 14.203 8.08802 14.203C11.082 14.203 12.972 13.638 13.413 13.423L12.77 13.048C12.31 13.173 10.601 13.554 8.08802 13.554C6.60802 13.554 4.05802 13.281 4.05802 12.864C4.05802 12.49 5.64902 12.202 6.10602 12.119L6.13502 12.114L6.03202 12.054Z" fill="black"/>
</svg>
