<svg width="20" height="20" viewBox="0 0 20 20" fill="none" xmlns="http://www.w3.org/2000/svg">
<path d="M9.53 0C9.53 2.4 11.5 4.35 13.88 4.35H15.66V6.05C15.66 8.45 17.6 10.39 20 10.4V0.84C20 0.617218 19.9115 0.403561 19.754 0.24603C19.5964 0.0884998 19.3828 0 19.16 0H9.53ZM4.77 4.8C4.77526 5.94942 5.2342 7.05026 6.04697 7.86303C6.85974 8.6758 7.96058 9.13474 9.11 9.14H10.91V10.86C10.9153 12.0094 11.3742 13.1103 12.187 13.923C12.9997 14.7358 14.1006 15.1947 15.25 15.2V5.63C15.2474 5.41068 15.1591 5.20107 15.004 5.04597C14.8489 4.89088 14.6393 4.8026 14.42 4.8H4.77ZM0 9.6C0 12 1.95 13.94 4.35 13.94H6.13V15.66C6.14 18.05 8.08 20 10.47 20V10.43C10.47 10.2072 10.3815 9.99356 10.224 9.83603C10.0664 9.6785 9.85278 9.59 9.63 9.59L0 9.6Z" fill="black"/>
</svg>
