<svg width="24" height="24" viewBox="0 0 24 24" fill="none" xmlns="http://www.w3.org/2000/svg">
<mask id="mask0_290_488" style="mask-type:luminance" maskUnits="userSpaceOnUse" x="0" y="0" width="24" height="24">
<path d="M0 0H24V24H0V0Z" fill="white"/>
</mask>
<g mask="url(#mask0_290_488)">
<path d="M24 11.689C24 10.099 22.009 8.592 18.956 7.658C19.661 4.547 19.348 2.071 17.968 1.278C17.6335 1.09095 17.2551 0.996696 16.872 1.005V2.095C17.097 2.095 17.278 2.14 17.43 2.223C18.095 2.605 18.384 4.057 18.159 5.926C18.105 6.386 18.017 6.87 17.909 7.364C16.8865 7.11848 15.8489 6.94043 14.803 6.831C14.1795 5.97155 13.4997 5.15442 12.768 4.385C14.363 2.903 15.86 2.091 16.878 2.091V1C15.532 1 13.771 1.959 11.99 3.622C10.21 1.97 8.448 1.02 7.103 1.02V2.11C8.116 2.11 9.618 2.918 11.213 4.39C10.528 5.11 9.843 5.926 9.192 6.831C8.1439 6.93886 7.10445 7.11862 6.081 7.369C5.969 6.87967 5.884 6.407 5.826 5.951C5.596 4.081 5.88 2.629 6.541 2.243C6.687 2.155 6.878 2.115 7.103 2.115V1.025C6.693 1.025 6.32 1.113 5.998 1.298C4.623 2.091 4.315 4.561 5.024 7.663C1.981 8.603 0 10.104 0 11.689C0 13.279 1.991 14.786 5.044 15.719C4.339 18.831 4.652 21.307 6.032 22.099C6.35 22.285 6.722 22.373 7.132 22.373C8.478 22.373 10.239 21.414 12.02 19.751C13.8 21.404 15.561 22.353 16.907 22.353C17.293 22.3602 17.6741 22.2657 18.012 22.079C19.387 21.287 19.695 18.817 18.986 15.715C22.019 14.781 24 13.274 24 11.689ZM17.63 8.426C17.44 9.07987 17.2198 9.72456 16.97 10.358C16.5618 9.56239 16.1129 8.78836 15.625 8.039C16.321 8.141 16.9897 8.27 17.631 8.426M15.391 13.636C15.0247 14.2754 14.6313 14.899 14.212 15.505C12.7442 15.6341 11.268 15.6358 9.8 15.51C8.95813 14.3071 8.22173 13.0337 7.599 11.704C8.22031 10.371 8.95361 9.09305 9.791 7.884C11.2584 7.7546 12.7343 7.75259 14.202 7.878C14.6087 8.46133 15.0033 9.08133 15.386 9.738C15.7573 10.3787 16.0967 11.0273 16.404 11.684C16.093 12.3482 15.755 12.9994 15.391 13.636ZM16.97 13C17.234 13.656 17.46 14.311 17.645 14.947C17.005 15.104 16.329 15.236 15.63 15.338C16.1153 14.5815 16.5625 13.8012 16.97 13ZM12.01 18.22C11.554 17.7493 11.1007 17.2273 10.65 16.654C11.09 16.674 11.54 16.689 11.995 16.689C12.4557 16.6897 12.909 16.678 13.355 16.654C12.915 17.227 12.46 17.75 12.01 18.22ZM8.37 15.338C7.69572 15.2405 7.02633 15.1117 6.364 14.952C6.545 14.321 6.77 13.67 7.024 13.02C7.225 13.41 7.436 13.802 7.666 14.194C7.896 14.5853 8.13067 14.9667 8.37 15.338ZM11.985 5.158C12.441 5.62867 12.8943 6.15067 13.345 6.724C12.905 6.704 12.455 6.689 12 6.689C11.5393 6.68833 11.086 6.7 10.64 6.724C11.08 6.151 11.535 5.628 11.985 5.158ZM8.365 8.04C7.87984 8.79492 7.43262 9.57355 7.025 10.373C6.76827 9.73544 6.543 9.08565 6.35 8.426C6.99 8.274 7.666 8.142 8.365 8.04ZM3.938 14.164C2.206 13.426 1.086 12.457 1.086 11.689C1.086 10.921 2.206 9.947 3.938 9.214C4.358 9.033 4.818 8.871 5.293 8.72C5.572 9.678 5.939 10.676 6.393 11.699C5.96389 12.661 5.60137 13.6513 5.308 14.663C4.84351 14.519 4.38631 14.3524 3.938 14.164ZM6.57 21.154C5.905 20.774 5.616 19.32 5.841 17.452C5.895 16.992 5.983 16.507 6.091 16.013C7.049 16.248 8.096 16.429 9.197 16.547C9.82048 17.4065 10.5003 18.2236 11.232 18.993C9.637 20.475 8.14 21.287 7.122 21.287C6.93009 21.2878 6.7408 21.2425 6.57 21.155M18.174 17.428C18.404 19.297 18.12 20.75 17.459 21.136C17.313 21.224 17.122 21.263 16.897 21.263C15.884 21.263 14.382 20.456 12.787 18.983C13.516 18.2171 14.1912 17.4018 14.808 16.543C15.8561 16.4351 16.8955 16.2554 17.919 16.005C18.033 16.4983 18.118 16.9727 18.174 17.428ZM20.057 14.165C19.637 14.346 19.177 14.508 18.702 14.659C18.4029 13.6423 18.0354 12.6471 17.602 11.68C18.052 10.663 18.413 9.67 18.687 8.716C19.1723 8.86733 19.6307 9.03367 20.062 9.215C21.794 9.953 22.914 10.922 22.914 11.69C22.909 12.458 21.789 13.432 20.057 14.165Z" fill="black"/>
<path d="M11.995 13.9251C12.588 13.9251 13.1568 13.6895 13.5761 13.2702C13.9954 12.8509 14.231 12.2821 14.231 11.6891C14.231 11.0961 13.9954 10.5274 13.5761 10.108C13.1568 9.6887 12.588 9.45313 11.995 9.45312C11.402 9.45313 10.8332 9.6887 10.4139 10.108C9.99458 10.5274 9.759 11.0961 9.759 11.6891C9.759 12.2821 9.99458 12.8509 10.4139 13.2702C10.8332 13.6895 11.402 13.9251 11.995 13.9251Z" fill="black"/>
</g>
</svg>
