<svg width="16" height="16" viewBox="0 0 16 16" fill="none" xmlns="http://www.w3.org/2000/svg">
<path d="M4.01225 7.68262C3.94975 8.46956 4.64109 9.04919 5.11291 9.04919C5.58538 9.02716 7.42547 7.4765 7.42547 7.4765C8.29091 6.38197 8.29466 5.89528 8.29466 5.51275C8.22247 3.82391 5.14559 6.39619 4.01225 7.68262ZM11.6237 7.02894C12.0413 6.145 11.4794 5.16322 10.2572 6.02556C9.28591 6.64287 8.0285 7.91281 7.42672 8.40994C7.14759 8.97372 7.85516 10.5209 8.97641 9.704C10.3017 8.74113 11.2695 7.83572 11.6237 7.02894ZM12.7612 1.68169L13.0303 0H16V3.06981L14.9117 3.08281L13.6012 7.52138C13.6827 9.08788 12.8884 9.11337 12.7869 9.83216C12.5319 11.6387 10.5116 13.1169 9.73919 13.1169C9.22403 13.102 8.84744 12.5115 8.72094 11.997C10.1734 10.3905 12.1267 9.12794 12.1267 9.12794C12.2487 8.28303 11.9806 8.01403 12.8821 7.29406L13.7423 2.771C13.0077 2.28584 12.6648 2.29338 12.7612 1.68169ZM6.96469 9.17231C7.71788 10.6899 8.80616 10.7295 10.4934 8.79734C10.5335 8.97597 10.5774 9.16313 10.4969 9.6125C7.0645 12.6825 3.83169 15.6703 2.84766 16H0V15.2362C0.463125 14.594 4.264 11.459 6.96469 9.17231ZM12.0374 12.1108C11.8829 13.4244 10.6853 14.5739 9.08488 16H4.01288L8.28875 12.3983C9.02687 14.0781 10.3379 13.8348 12.0375 12.1108M6.03937 9.12906L0 14.2767V10.937L3.55406 8.04375C3.74419 9.12066 4.90891 10.0689 6.03937 9.12912" fill="black"/>
</svg>
