<svg width="18" height="18" viewBox="0 0 18 18" fill="none" xmlns="http://www.w3.org/2000/svg">
<path d="M16.131 0H1.869C0.914 0 0.139 0.787 0.139 1.758V16.242C0.139 17.212 0.914 18 1.869 18H16.131C17.087 18 17.861 17.213 17.861 16.242V1.758C17.861 0.788 17.087 0 16.131 0ZM10.419 9.984H8.204V16.418H6.439V9.984H4.223V8.543H10.419V9.984ZM16.131 15.261C15.992 15.578 15.754 15.813 15.473 16C15.175 16.1843 14.8471 16.3149 14.504 16.386C14.117 16.4674 13.7225 16.5077 13.327 16.506C12.9208 16.5073 12.5153 16.4704 12.116 16.396C11.7673 16.3346 11.4292 16.2235 11.112 16.066V14.377L11.046 14.324L11.112 14.309V14.377C11.406 14.615 11.73 14.7967 12.084 14.922C12.431 15.055 12.811 15.122 13.192 15.122C13.434 15.122 13.618 15.101 13.781 15.062C13.9275 15.0286 14.0676 14.9719 14.196 14.894C14.2983 14.8321 14.383 14.745 14.442 14.641C14.5031 14.5254 14.5307 14.395 14.5215 14.2646C14.5123 14.1341 14.4667 14.0089 14.39 13.903C14.2965 13.7708 14.1792 13.6571 14.044 13.568C13.8809 13.4526 13.7067 13.3538 13.524 13.273C13.317 13.178 13.106 13.079 12.867 12.981C12.278 12.7 11.814 12.419 11.517 12.031C11.216 11.681 11.067 11.223 11.067 10.696C11.067 10.274 11.147 9.936 11.309 9.641C11.482 9.325 11.686 9.093 11.967 8.903C12.244 8.71 12.555 8.569 12.936 8.481C13.316 8.393 13.698 8.348 14.113 8.348C14.528 8.348 14.875 8.372 15.186 8.421C15.497 8.471 15.788 8.548 16.051 8.65V10.302C15.9215 10.2071 15.7824 10.126 15.636 10.06C15.3263 9.92566 15.0001 9.83318 14.666 9.785C14.517 9.76272 14.3666 9.75169 14.216 9.752C14.0301 9.74951 13.8445 9.76864 13.663 9.809C13.5161 9.8383 13.3754 9.89277 13.247 9.97C13.1424 10.0325 13.0535 10.118 12.987 10.22C12.9251 10.3178 12.8928 10.4313 12.894 10.547C12.894 10.6763 12.9287 10.7933 12.998 10.898C13.0667 10.9993 13.165 11.098 13.293 11.194C13.407 11.285 13.563 11.377 13.743 11.468C13.95 11.559 14.137 11.651 14.366 11.746C14.677 11.879 14.954 12.027 15.196 12.168C15.439 12.308 15.643 12.473 15.819 12.66C16.006 12.835 16.141 13.047 16.235 13.293C16.329 13.539 16.377 13.816 16.377 14.136C16.377 14.593 16.269 14.945 16.131 15.261Z" fill="black"/>
</svg>
